<svg xmlns="http://www.w3.org/2000/svg" width="48" height="48" viewBox="0 0 48 48" fill="none">
  <path d="M38.5294 5.98156C39.239 6.70345 39.994 7.72235 40.5056 9.10013C41.7061 10.7749 42.6963 12.9571 43.4678 15.6508C44.6683 19.8377 44.9901 24.0618 45.0767 25.8232C45.0767 25.8232 45.0767 25.8274 45.0809 25.8315L45.0561 25.287C45.0231 24.4908 45.6419 23.8184 46.4382 23.7854C47.1767 23.7524 47.8037 24.2805 47.9234 24.99C47.7914 22.8325 47.3953 18.8766 46.2443 14.8588C43.9051 6.70757 39.4659 2.3061 33.4054 2.13697C29.3789 2.0256 24.8696 4.15414 20.6821 8.01523C23.8217 5.16066 26.9654 3.66738 30.4433 3.31675C33.5952 2.99912 36.545 3.96851 38.5294 5.98156Z" fill="#FFB81C"/>
  <path d="M18.1127 12.8504C18.7521 13.3289 18.88 14.2323 18.4014 14.8717C18.4014 14.8717 18.4014 14.8717 18.4014 14.8758C19.2389 13.7744 20.0434 12.8133 20.8149 11.9759C20.8479 11.9388 20.885 11.9016 20.9181 11.8645C21.0129 11.7614 21.1078 11.6583 21.2027 11.5593C21.3059 11.452 21.4049 11.3489 21.508 11.2458C21.5493 11.2045 21.5905 11.1633 21.6318 11.122C21.739 11.0147 21.8463 10.9075 21.9536 10.8044C22.0196 10.7425 22.0856 10.6765 22.1475 10.6146C22.1929 10.5734 22.2341 10.5321 22.2795 10.4909C25.8069 7.16604 28.5834 6.41115 30.737 6.19664C33.0184 5.96564 35.1101 6.62978 36.4756 8.01581C37.8948 9.45546 38.4848 11.5758 38.1878 14.1498C38.097 14.9418 38.6622 15.6596 39.4543 15.7504C39.5121 15.7586 39.5657 15.7586 39.6235 15.7586C40.3454 15.7586 40.9684 15.2182 41.055 14.4798C41.3108 12.2729 41.0344 10.5074 40.5105 9.10896C39.9948 7.72705 39.2439 6.71228 38.5343 5.99039C36.5499 3.97735 33.6042 3.00382 30.4482 3.32558C26.9703 3.67621 23.8266 5.1695 20.687 8.02406C20.0104 8.6387 19.3338 9.31934 18.6531 10.0619C18.6531 10.0619 18.6531 10.0619 18.649 10.066C18.5211 10.2062 18.3932 10.3465 18.2653 10.4909C17.5516 11.2953 16.8337 12.1739 16.1076 13.1268C16.1076 13.1268 16.1035 13.1309 16.0994 13.135C16.5779 12.4998 17.4814 12.3719 18.1168 12.8504" fill="#E87722"/>
  <path d="M35.0562 17.7716C31.3061 16.3154 27.527 16.2783 23.8264 17.6602C23.0797 17.9407 22.7001 18.7698 22.9806 19.5165C23.2612 20.2631 24.0904 20.6426 24.8372 20.3621C27.8983 19.2195 30.8976 19.2525 34.0125 20.4611C36.1206 21.2779 37.9895 22.6598 39.5449 24.0953C42.1399 24.71 44.0253 25.6835 45.1062 26.3518L45.0855 25.832C45.0855 25.832 45.0814 25.8279 45.0773 25.8237C43.1341 23.4518 39.6769 19.5619 35.0562 17.7674" fill="#005EB8"/>
  <path d="M1.07368 41.3256C0.219681 41.6432 -0.213506 42.5879 0.104164 43.4418C0.421834 44.2915 1.36659 44.7288 2.22059 44.4112C3.07459 44.0935 3.50777 43.1489 3.1901 42.295C2.87243 41.4411 1.92767 41.008 1.07368 41.3256Z" fill="#C4D600"/>
  <path d="M41.616 4.08029C42.1689 4.11742 42.6516 3.69666 42.6887 3.1439C42.7258 2.59113 42.305 2.1085 41.7522 2.07137C41.1993 2.03425 40.7167 2.455 40.6795 3.00777C40.6424 3.56053 41.0632 4.04316 41.616 4.08029Z" fill="#009639"/>
  <path d="M4.27501 44.0031C3.75931 44.1929 3.49528 44.7663 3.68918 45.2819C3.87896 45.7975 4.45241 46.0616 4.96811 45.8677C5.48381 45.6779 5.74785 45.1045 5.55394 44.5889C5.36417 44.0733 4.79071 43.8093 4.27501 44.0031Z" fill="#00A3E0"/>
  <path d="M46.9131 5.53623C47.5649 4.82259 47.5154 3.71294 46.7976 3.05705C46.0838 2.40529 44.9741 2.45479 44.3181 3.17255C43.6662 3.89032 43.7158 4.99584 44.4336 5.65173C45.1473 6.3035 46.2571 6.25399 46.9131 5.53623Z" fill="#E87722"/>
  <path d="M18.112 12.8499C17.4767 12.3714 16.5732 12.4993 16.0946 13.1345C16.0946 13.1345 16.0946 13.1345 16.0946 13.1387C13.0416 17.206 10.5168 22.0777 8.58189 27.5311C7.82278 32.0769 7.65363 36.9239 7.93417 39.8404C7.9383 39.894 7.94242 39.9476 7.94242 40.0012C8.12808 39.7579 8.43337 39.366 8.43337 39.366C10.6571 27.1763 15.0632 19.3345 18.4049 14.8794C18.4049 14.8794 18.4049 14.8794 18.4049 14.8753C18.8835 14.2359 18.7515 13.3325 18.1161 12.854" fill="#009639"/>
  <path d="M47.9982 26.504L47.9404 25.1675C47.9404 25.1097 47.9322 25.0479 47.9198 24.9942C47.8043 24.2847 47.1731 23.7526 46.4346 23.7897C45.6384 23.8227 45.0195 24.4951 45.0525 25.2912L45.0773 25.8358L45.0979 26.3555C44.017 25.6831 42.1275 24.7137 39.5366 24.0991C37.7791 23.6825 35.6998 23.4267 33.3152 23.5422C27.4486 23.8268 21.5779 26.4628 15.8599 31.3799C16.4622 30.8601 17.374 30.9302 17.8938 31.5325C18.4136 32.1348 18.3435 33.0464 17.7411 33.5662C22.96 29.0781 28.2449 26.6773 33.4514 26.4256C39.1736 26.1493 42.9072 28.3521 43.9139 29.0327C44.0954 29.1565 44.2852 29.2472 44.4749 29.3215C44.4791 29.3215 44.4832 29.3256 44.4914 29.3297C45.201 29.6061 45.9643 29.5607 46.6244 29.1771C47.5196 28.6614 48.0642 27.5889 47.9941 26.5081" fill="#00A3E0"/>
  <path d="M17.9022 31.5287C17.3823 30.9264 16.4706 30.8563 15.8683 31.3761C15.6744 31.5452 15.4805 31.7143 15.2865 31.8876C15.237 31.933 15.1875 31.9783 15.138 32.0237C14.9936 32.1557 14.8492 32.2836 14.709 32.4156C14.6595 32.461 14.61 32.5105 14.5604 32.5558C14.416 32.692 14.2758 32.824 14.1314 32.9601C14.0901 32.9972 14.053 33.0385 14.0117 33.0756C13.8591 33.2241 13.7064 33.3726 13.5579 33.5211C13.5332 33.5459 13.5043 33.5747 13.4795 33.5995C13.3104 33.7686 13.1454 33.9336 12.9803 34.1028C12.9721 34.111 12.968 34.1193 12.9597 34.1234C10.9547 36.1901 9.21781 38.3186 7.943 39.9934C7.943 39.9398 7.943 39.8861 7.93475 39.8325C7.65421 36.9161 7.82336 32.0691 8.58247 27.5232C9.05278 24.7141 9.74588 22.0162 10.6989 19.9702C11.0372 19.2483 10.7236 18.3903 10.0017 18.052C9.27969 17.7138 8.42157 18.0273 8.08327 18.7492C5.35213 24.6068 4.5724 34.8288 5.05509 40.0264C5.05509 41.2433 5.90084 42.4189 7.09313 42.8438C7.18389 42.8768 7.27878 42.9016 7.36954 42.9263C7.40255 42.9346 7.43968 42.9428 7.47268 42.9511C7.52219 42.9593 7.56757 42.9676 7.61708 42.9758C7.66246 42.9841 7.71197 42.9923 7.75735 42.9964C7.80273 43.0006 7.84399 43.0006 7.88937 43.0047C7.93062 43.0047 7.96775 43.0088 8.00901 43.0088C8.10802 43.0088 8.20291 43.0047 8.2978 42.9923C8.98265 42.9139 9.61386 42.5633 10.0553 41.9776C11.8252 39.6345 14.5976 36.2684 17.7454 33.5582C18.3477 33.0385 18.4179 32.1268 17.898 31.5246" fill="#C4D600"/>
</svg>