<svg width="143" height="127" viewBox="0 0 143 127" fill="none" xmlns="http://www.w3.org/2000/svg">
<path d="M18.0441 39.2345C18.0441 40.4256 17.5083 41.0247 16.4295 41.0247H15.4158C15.1045 41.0247 14.8583 40.9106 14.6918 40.6823C14.518 40.4541 14.4238 40.1403 14.3949 39.7409C14.3732 39.3414 14.2428 38.9777 14.0184 38.6425C13.7939 38.3073 13.5043 38.0434 13.1568 37.8437C12.5051 37.4657 11.629 37.2802 10.5502 37.2802C9.47138 37.2802 8.52285 37.5013 7.71915 37.9506C6.91545 38.4 6.27101 38.9991 5.7859 39.748C4.84463 41.1531 4.38128 43.0289 4.38128 45.3825C4.38128 49.612 5.77864 52.2652 8.57348 53.3564C9.4351 53.6845 10.2751 53.8486 11.0933 53.8486C12.5776 53.8486 13.888 53.5846 15.0248 53.0568L15.843 52.6788C16.1036 52.5647 16.3426 52.5077 16.5453 52.5077C16.748 52.5077 16.9146 52.5576 17.0449 52.6503C17.1753 52.7502 17.3345 52.9784 17.5227 53.335C17.711 53.6988 17.8124 54.0126 17.8124 54.2765C17.8124 54.5404 17.7182 54.8043 17.53 55.0539C17.3417 55.3107 17.1173 55.5318 16.8422 55.7244C16.3643 56.031 15.785 56.2878 15.1117 56.4875C13.8808 56.8512 12.44 57.0367 10.7964 57.0367C9.15277 57.0367 7.67573 56.7443 6.38692 56.1594C5.09087 55.5746 4.00478 54.7615 3.12144 53.7202C1.31131 51.6019 0.40625 48.8274 0.40625 45.3896C0.40625 41.9519 1.31849 39.2987 3.15034 37.2731C5.0184 35.1905 7.58879 34.1562 10.8615 34.1562C12.6572 34.1562 14.25 34.5486 15.6402 35.3402C17.2404 36.246 18.0441 37.5441 18.0441 39.2416" fill="white"/>
<path d="M24.4156 52.7081C24.4156 53.3928 24.6618 53.7352 25.1469 53.7352C25.3062 53.7352 25.5018 53.6924 25.7479 53.6068C26.1968 53.4428 26.472 53.3643 26.5661 53.3643C26.7906 53.3643 26.9643 53.507 27.0947 53.7851L27.5508 54.8122C27.6087 54.9548 27.6377 55.0903 27.6377 55.2187C27.6377 55.4398 27.4494 55.7108 27.0802 56.0247C26.3344 56.6309 25.3641 56.9376 24.1622 56.9376C21.9756 56.9376 20.875 55.4969 20.875 52.6154V32.0245C20.875 31.7677 20.9547 31.5466 21.1067 31.3612C21.266 31.1757 21.4471 31.083 21.6643 31.083H23.6264C23.8509 31.083 24.0392 31.1757 24.184 31.3612C24.3288 31.5466 24.4011 31.7677 24.4011 32.0245V52.7224L24.4156 52.7081Z" fill="white"/>
<path d="M45.077 55.7024C45.077 56.3586 44.7729 56.6867 44.1647 56.6867H43.5058C42.9193 56.6867 42.5356 56.4585 42.3474 55.9949C42.1446 55.4671 41.9202 54.7253 41.6885 53.7838C41.2758 54.7966 40.5807 55.5954 39.596 56.1732C38.6113 56.758 37.3876 57.0504 35.925 57.0504C34.0063 57.0504 32.5944 56.4585 31.6893 55.2816C30.777 54.1048 30.3281 52.3645 30.3281 50.0608V41.3522C30.3281 41.0812 30.415 40.853 30.5815 40.6747C30.7553 40.4892 30.9942 40.3965 31.3056 40.3965H32.9202C33.5646 40.3965 33.8905 40.7175 33.8905 41.3522V49.9038C33.8905 52.2076 34.4335 53.5342 35.5196 53.8908C35.8744 54.0049 36.2871 54.062 36.7722 54.062C37.2573 54.062 37.7569 53.955 38.2709 53.7267C38.785 53.5056 39.2484 53.2132 39.6539 52.8495C40.5735 52.0079 41.0296 51.0522 41.0296 49.9752V41.3522C41.0296 41.0812 41.1092 40.853 41.283 40.6747C41.4496 40.4892 41.7102 40.3965 42.0722 40.3965H43.6144C43.9547 40.3965 44.2082 40.4892 44.3602 40.6747C44.5195 40.8601 44.5919 41.0812 44.5919 41.3522V50.3746C44.5919 52.4073 44.7368 54.0406 45.0336 55.2887C45.0626 55.3957 45.077 55.5312 45.077 55.7095" fill="white"/>
<path d="M50.8058 56.6811C50.2194 56.6811 49.9297 56.3102 49.9297 55.5685V32.0105C49.9297 31.7537 50.0021 31.5326 50.1469 31.3472C50.2917 31.1617 50.48 31.0762 50.7045 31.0762H52.6956C52.9201 31.0762 53.1083 31.1689 53.2604 31.3472C53.4124 31.5326 53.4848 31.7537 53.4848 32.0105V42.5663C54.7374 40.8688 56.5258 40.0272 58.85 40.0272C60.9788 40.0272 62.6151 40.8046 63.7446 42.3523C64.7728 43.7574 65.2869 45.6332 65.2869 47.9726C65.2869 50.7043 64.6207 52.9081 63.2812 54.57C61.9635 56.2033 60.2909 57.0234 58.2708 57.0234C57.1775 57.0234 56.1638 56.781 55.2298 56.296C54.2958 55.811 53.5427 55.0692 52.9635 54.0636C52.9418 54.3631 52.9128 54.6555 52.8839 54.948C52.8549 55.2404 52.8259 55.5185 52.8186 55.7824C52.7824 56.3815 52.3843 56.6811 51.6313 56.6811H50.8131H50.8058ZM54.5275 44.6489C54.122 45.1482 53.8106 45.7259 53.5934 46.3821C53.3762 47.0382 53.2676 47.7301 53.2676 48.4433C53.2676 49.1565 53.3762 49.8555 53.5934 50.5259C53.8106 51.1964 54.1075 51.7955 54.484 52.3233C55.3239 53.4787 56.3666 54.0564 57.6047 54.0564C58.9949 54.0564 60.0302 53.4573 60.7253 52.2662C61.2901 51.2748 61.5797 49.991 61.5797 48.4219C61.5797 45.8329 60.9063 44.1639 59.5524 43.4222C59.0817 43.1654 58.5097 43.0299 57.8364 43.0299C57.163 43.0299 56.5403 43.1725 55.9756 43.465C55.4108 43.7503 54.9257 44.1496 54.5202 44.6418" fill="white"/>
<path d="M71.5212 49.3336L71.5067 49.6047C71.5067 50.9241 71.9339 51.9797 72.7811 52.7785C73.6717 53.6273 74.8808 54.0481 76.4013 54.0481C77.7915 54.0481 79.0803 53.6416 80.275 52.8213C80.4994 52.6644 80.7021 52.5931 80.8759 52.5931C81.2379 52.5931 81.5131 52.7714 81.6941 53.128L82.0924 53.934C82.1792 54.1265 82.2227 54.3334 82.2227 54.5545C82.2227 54.7756 82.1213 55.0038 81.9186 55.2392C81.7159 55.4745 81.4552 55.6885 81.1366 55.8811C80.8108 56.0737 80.4415 56.2448 80.0143 56.3875C79.5871 56.5301 79.1527 56.6514 78.7038 56.7512C77.8059 56.9438 76.8647 57.0365 75.8873 57.0365C74.9098 57.0365 73.925 56.8511 72.9331 56.4873C71.9411 56.1236 71.0796 55.5886 70.3628 54.8825C68.8061 53.3919 68.0312 51.3735 68.0312 48.8344C68.0312 44.3767 69.6242 41.6022 72.8101 40.5181C73.8092 40.1829 74.8302 40.0117 75.88 40.0117C76.9299 40.0117 77.8277 40.1259 78.5662 40.347C79.3048 40.5681 79.9419 40.8961 80.4777 41.3312C81.6145 42.2441 82.1792 43.5208 82.1792 45.1613C82.1792 46.8017 81.5131 47.9999 80.1881 48.8415C79.0224 49.5833 77.4874 49.9541 75.5831 49.9541C74.4102 49.9541 73.0562 49.7473 71.5212 49.3336ZM78.74 45.1113C78.74 43.7348 77.7987 43.0429 75.9234 43.0429C74.0481 43.0429 72.8825 43.6849 72.1729 44.9758C71.9195 45.4251 71.7529 45.9886 71.6732 46.6519C72.5131 47.0656 73.5848 47.2724 74.8808 47.2724C77.4512 47.2724 78.74 46.552 78.74 45.1042" fill="white"/>
<path d="M9.07238 77.3921V69.5108C9.07238 69.3254 9.1303 69.1614 9.24615 69.0259C9.36199 68.8903 9.49954 68.8262 9.67331 68.8262H11.2083C11.3748 68.8262 11.5197 68.8903 11.6283 69.0259C11.7369 69.1614 11.7948 69.3254 11.7948 69.5108V83.483C11.7948 84.9523 11.9107 86.1648 12.1496 87.1348C12.1713 87.2346 12.1857 87.363 12.1857 87.5199C12.1857 87.6768 12.1207 87.8195 11.9831 87.9479C11.8455 88.0762 11.6718 88.1475 11.4545 88.1475H10.9115C10.4771 88.1475 10.1874 87.9764 10.0353 87.6269C9.83984 87.1847 9.68777 86.5998 9.55744 85.8723C8.98544 87.0563 8.03696 87.848 6.69023 88.2403C6.24855 88.3615 5.69825 88.4257 5.03937 88.4257C4.38048 88.4257 3.72162 88.2617 3.06997 87.9264C2.41832 87.5912 1.86086 87.1419 1.40471 86.5642C0.470679 85.3731 0 83.8895 0 82.1207C0 80.3519 0.456156 78.7757 1.36122 77.5632C2.34593 76.2509 3.64925 75.5876 5.28561 75.5876C6.92196 75.5876 8.18179 76.1938 9.06513 77.3992M2.83831 82.1849C2.83831 82.6771 2.89624 83.1621 3.01933 83.6328C3.14241 84.1036 3.32344 84.5243 3.57686 84.8952C4.13438 85.7368 4.90908 86.1576 5.90103 86.1576C6.79886 86.1576 7.58809 85.7725 8.2687 85.0022C8.99275 84.2034 9.35477 83.2619 9.35477 82.1707C9.35477 80.8512 9.00717 79.7885 8.30484 78.9897C7.63148 78.2265 6.80612 77.8485 5.82865 77.8485C4.85118 77.8485 4.02569 78.3264 3.49714 79.275C3.0627 80.0738 2.84556 81.0438 2.84556 82.1849" fill="white"/>
<path d="M17.3074 82.5993L17.2929 82.8061C17.2929 83.8046 17.6115 84.6034 18.2559 85.2025C18.9293 85.8444 19.8343 86.1583 20.9856 86.1583C22.0355 86.1583 23.0057 85.8516 23.9035 85.2311C24.0701 85.117 24.2221 85.0599 24.3597 85.0599C24.6348 85.0599 24.8375 85.1954 24.9824 85.4664L25.2792 86.0798C25.3444 86.2225 25.3806 86.3794 25.3806 86.5505C25.3806 86.7217 25.3009 86.8929 25.1561 87.0712C25.0041 87.2495 24.8086 87.4136 24.5624 87.5562C24.3163 87.6989 24.0411 87.8272 23.7153 87.9413C23.3967 88.0483 23.0636 88.141 22.7233 88.2124C22.0427 88.355 21.3403 88.4335 20.6018 88.4335C19.8633 88.4335 19.1248 88.2979 18.3718 88.0198C17.626 87.7416 16.9744 87.3422 16.4314 86.8073C15.2584 85.6804 14.6719 84.1612 14.6719 82.2426C14.6719 78.8762 15.8738 76.7864 18.2776 75.9662C19.0306 75.7095 19.8054 75.5811 20.5947 75.5811C21.3839 75.5811 22.0644 75.6667 22.6219 75.8307C23.1795 76.0019 23.6573 76.2444 24.0628 76.5725C24.9172 77.2643 25.3444 78.2271 25.3444 79.461C25.3444 80.6949 24.8448 81.6007 23.8384 82.2426C22.9623 82.799 21.8038 83.0842 20.3629 83.0842C19.4796 83.0842 18.4587 82.9273 17.3002 82.6135M22.7523 79.4182C22.7523 78.3769 22.0427 77.8634 20.6308 77.8634C19.2189 77.8634 18.3355 78.3484 17.7997 79.3255C17.6115 79.6679 17.4812 80.0887 17.4233 80.5879C18.0605 80.9018 18.8641 81.0587 19.8489 81.0587C21.7893 81.0587 22.7596 80.5166 22.7596 79.4254" fill="white"/>
<path d="M36.5547 66.9301C36.5547 66.6805 36.6344 66.4665 36.7937 66.2811C36.953 66.0957 37.1484 66.0029 37.3729 66.0029H49.2763C49.5297 66.0029 49.7252 66.0814 49.8555 66.2383C49.9858 66.3952 50.051 66.5949 50.051 66.8232V68.3994C50.051 68.6205 49.9858 68.813 49.8555 68.9699C49.7252 69.1269 49.5297 69.2053 49.2763 69.2053H40.2329V76.3804H47.5168C47.7702 76.3804 47.9658 76.466 48.0961 76.6229C48.2264 76.787 48.2915 76.9795 48.2915 77.2006V78.7626C48.2915 78.9837 48.2264 79.1763 48.0961 79.3332C47.9658 79.4901 47.7702 79.5686 47.5168 79.5686H40.2184V87.2072C40.2184 87.4569 40.1387 87.6709 39.9794 87.8563C39.8201 88.0417 39.6247 88.1345 39.4002 88.1345H37.3656C37.1412 88.1345 36.953 88.0417 36.7937 87.8563C36.6344 87.6709 36.5619 87.4569 36.5619 87.2072V66.9159L36.5547 66.9301Z" fill="white"/>
<path d="M55.0987 80.7946L55.0842 81.0656C55.0842 82.3851 55.5114 83.4407 56.3585 84.2466C57.2491 85.0954 58.4583 85.5161 59.9788 85.5161C61.369 85.5161 62.6578 85.1096 63.8453 84.2894C64.0697 84.1325 64.2724 84.0612 64.4462 84.0612C64.8082 84.0612 65.0834 84.2395 65.2644 84.5961L65.6627 85.402C65.7496 85.5946 65.7929 85.8015 65.7929 86.0226C65.7929 86.2437 65.6915 86.4719 65.4888 86.7073C65.2861 86.9426 65.0255 87.1566 64.7069 87.3491C64.3883 87.5417 64.0118 87.7129 63.5846 87.8556C63.1575 87.9982 62.723 88.1195 62.2741 88.2193C61.3762 88.4119 60.435 88.5046 59.4575 88.5046C58.48 88.5046 57.4954 88.3192 56.5034 87.9554C55.5115 87.5917 54.6498 87.0567 53.933 86.3507C52.3763 84.86 51.6016 82.8415 51.6016 80.3024C51.6016 75.8448 53.1945 73.0703 56.3803 71.9862C57.3795 71.651 58.4004 71.4798 59.4503 71.4798C60.5001 71.4798 61.398 71.5868 62.1365 71.8079C62.8751 72.029 63.5122 72.3571 64.048 72.7921C65.1847 73.7051 65.7495 74.9818 65.7495 76.6222C65.7495 78.2626 65.0834 79.4608 63.7584 80.3024C62.5927 81.0442 61.0576 81.4151 59.1534 81.4151C57.9804 81.4151 56.6264 81.2082 55.0914 80.7946M62.3176 76.5794C62.3176 75.2029 61.3763 74.5182 59.501 74.5182C57.6257 74.5182 56.4599 75.1601 55.7504 76.451C55.4969 76.9075 55.3305 77.4638 55.2508 78.1271C56.0907 78.5408 57.1623 78.7476 58.4583 78.7476C61.0287 78.7476 62.3176 78.0273 62.3176 76.5794ZM58.2845 69.5327C58.1542 69.6111 58.0094 69.6468 57.8429 69.6468C57.6763 69.6468 57.546 69.5826 57.4591 69.4471L56.7423 68.4628C56.6771 68.363 56.6409 68.256 56.6409 68.1205C56.6409 67.985 56.7423 67.8423 56.9378 67.664L61.4704 63.6057C61.7166 63.3846 61.941 63.2705 62.1582 63.2705C62.4985 63.2705 62.752 63.3775 62.9185 63.5915L64.0191 64.9609C64.1349 65.1035 64.1928 65.2533 64.1783 65.4102C64.1711 65.8025 63.9756 66.1163 63.6063 66.3374L58.2845 69.5255V69.5327Z" fill="white"/>
<path d="M69.1875 72.8992C69.1875 72.2073 69.4915 71.8579 70.1142 71.8579H70.9035C71.4393 71.8579 71.823 72.0861 72.0475 72.5497C72.3733 73.2273 72.605 74.1545 72.7498 75.3385C72.7498 75.3599 72.757 75.367 72.7715 75.367C72.786 75.367 72.815 75.2029 72.8656 74.8748C72.9163 74.5468 73.0539 74.1473 73.2928 73.6695C73.5317 73.1916 73.8142 72.7922 74.1545 72.4641C74.8496 71.8222 75.6967 71.4941 76.7032 71.4941C77.8254 71.4941 78.6074 71.6796 79.0491 72.0433C79.2518 72.2074 79.3387 72.4356 79.2952 72.7209L79.0635 74.5396C79.0056 75.0318 78.7522 75.2742 78.3033 75.2742C78.0861 75.2742 77.8254 75.2315 77.5141 75.1459C76.9059 74.989 76.4279 74.9176 76.0804 74.9176C75.7328 74.9176 75.3564 75.0674 74.9654 75.3741C74.5744 75.6737 74.2341 76.0517 73.9517 76.5081C73.3725 77.4496 73.0901 78.4553 73.0901 79.5251V87.1923C73.0901 87.4634 73.0105 87.6916 72.8584 87.8699C72.6991 88.0553 72.4746 88.148 72.185 88.148H70.4835C70.1721 88.148 69.9332 88.0553 69.7739 87.8699C69.6146 87.6844 69.535 87.4634 69.535 87.1923V77.2428C69.535 75.5453 69.4771 74.4326 69.3685 73.8834C69.2527 73.3414 69.2019 73.0062 69.2019 72.892" fill="white"/>
<path d="M83.2476 69.069C82.5814 69.069 82.0167 68.8408 81.5461 68.3914C81.0754 67.9492 80.8438 67.3929 80.8438 66.7153C80.8438 66.0378 81.0754 65.5029 81.5461 65.0393C81.995 64.5971 82.5597 64.376 83.2476 64.376C84.2902 64.376 85.0288 64.8467 85.4487 65.7953C85.579 66.0735 85.637 66.3801 85.637 66.7225C85.637 67.4001 85.4053 67.9564 84.9347 68.3986C84.464 68.8479 83.9064 69.0761 83.2476 69.0761M84.9636 84.1752C84.9636 84.8599 85.1953 85.2022 85.6515 85.2022C85.8108 85.2022 85.9845 85.1595 86.18 85.0739C86.5637 84.9098 86.8171 84.8314 86.9547 84.8314C87.1574 84.8314 87.324 84.974 87.4543 85.2522L87.9105 86.265C87.9901 86.429 88.0263 86.5859 88.0263 86.7286C88.0263 87.1422 87.6643 87.5274 86.9402 87.884C86.2524 88.2335 85.579 88.4046 84.9129 88.4046C84.2468 88.4046 83.711 88.3333 83.3055 88.1907C82.9073 88.048 82.5597 87.8055 82.2774 87.4703C81.7126 86.7785 81.4302 85.6516 81.4302 84.0896V72.8277C81.4302 72.5567 81.5099 72.3285 81.6619 72.1502C81.8212 71.9647 82.0022 71.8791 82.2195 71.8791H84.1816C84.4061 71.8791 84.5943 71.9718 84.7391 72.1502C84.884 72.3356 84.9563 72.5567 84.9563 72.8277V84.1895L84.9636 84.1752Z" fill="white"/>
<path d="M104.171 87.3774C104.171 87.8909 103.918 88.1405 103.411 88.1405H101.992C101.608 88.1405 101.384 88.0692 101.304 87.9194C101.224 87.7696 101.181 87.6341 101.174 87.5129C101.166 87.3916 101.145 87.2419 101.116 87.0707C101.058 86.6 100.971 86.0865 100.87 85.5373C100.109 86.9138 98.9073 87.8267 97.2782 88.2689C96.6989 88.4259 96.069 88.4971 95.3739 88.4971C94.6788 88.4971 93.9837 88.383 93.2887 88.1548C92.5936 87.9266 91.9782 87.5914 91.4424 87.1492C90.2332 86.1506 89.625 84.8312 89.625 83.205C89.625 81.4219 90.2911 80.0597 91.6161 79.1182C92.7095 78.355 94.1141 77.977 95.8373 77.977C97.5606 77.977 99.0159 78.4763 100.203 79.4677C100.232 79.1396 100.247 78.733 100.247 78.2409C100.247 77.7488 100.145 77.2567 99.9572 76.7645C99.7617 76.2724 99.4793 75.8659 99.1245 75.5378C98.3788 74.8959 97.3434 74.5678 96.0183 74.5678C94.8237 74.5678 93.6145 74.8887 92.3836 75.5378C92.1519 75.6662 91.9419 75.7232 91.7682 75.7232C91.5075 75.7232 91.2468 75.4664 91.0079 74.9601C90.7472 74.4394 90.6097 74.0614 90.6097 73.8331C90.6097 73.4123 90.9355 72.9987 91.5799 72.6064C92.8108 71.8575 94.4544 71.4795 96.518 71.4795C98.3933 71.4795 99.9499 71.9859 101.181 72.9987C102.636 74.2112 103.367 75.9229 103.367 78.1411C103.367 79.1253 103.208 80.3592 102.882 81.8499C103.715 84.1821 104.149 86.0223 104.186 87.3631M94.3458 81.2507C93.9476 81.5432 93.6579 81.8356 93.4842 82.128C93.3104 82.4133 93.2308 82.7556 93.2308 83.1479C93.2308 83.5402 93.3032 83.8826 93.4408 84.1892C93.5856 84.4959 93.781 84.7456 94.0344 84.9453C94.5702 85.3589 95.1784 85.5658 95.8446 85.5658C96.5107 85.5658 97.061 85.4873 97.4954 85.3375C97.9226 85.1806 98.2991 84.9881 98.6104 84.7456C99.2838 84.2249 99.6241 83.6757 99.6241 83.098C99.5662 82.3777 99.1608 81.8071 98.4077 81.3934C97.7344 81.0083 96.9379 80.8157 96.0183 80.8157C95.3088 80.8157 94.7441 80.9655 94.3458 81.2579" fill="white"/>
<path d="M112.387 85.5448C114.262 85.5448 115.204 84.9242 115.204 83.6832C115.204 82.9985 114.668 82.4208 113.604 81.9501C113.155 81.7504 112.662 81.5578 112.134 81.3866C111.598 81.2155 111.091 81.0086 110.599 80.7661C110.106 80.5236 109.65 80.2668 109.23 79.9815C108.803 79.6963 108.434 79.3753 108.122 79.0044C107.478 78.2341 107.152 77.257 107.152 76.0731C107.152 74.6323 107.76 73.484 108.984 72.6353C110.07 71.8721 111.402 71.4941 112.988 71.4941C114.69 71.4941 116.109 71.8222 117.253 72.4784C117.644 72.7066 117.839 72.9777 117.839 73.2701C117.839 73.6909 117.723 74.1616 117.492 74.6609C117.26 75.1673 116.992 75.4169 116.688 75.4169C116.384 75.4169 116.102 75.3527 115.855 75.2315C115.609 75.1031 115.377 74.9961 115.182 74.9034C114.979 74.8106 114.769 74.7393 114.545 74.6823C114.052 74.5396 113.603 74.4683 113.191 74.4683C112.778 74.4683 112.438 74.4968 112.184 74.5539C111.931 74.6109 111.699 74.7037 111.497 74.8321C110.997 75.1316 110.751 75.4953 110.751 75.9304C110.751 76.3655 110.852 76.6936 111.055 76.9289C111.258 77.1643 111.533 77.3712 111.88 77.5637C112.235 77.7563 112.655 77.9489 113.14 78.1414L114.726 78.7905C116.007 79.3397 116.869 79.8318 117.318 80.274C118.194 81.1584 118.636 82.1854 118.636 83.348C118.636 84.8101 118.129 86.0155 117.108 86.957C115.986 87.9911 114.385 88.5047 112.315 88.5047C110.244 88.5047 108.636 88.1052 107.579 87.3064C107.058 86.9213 106.805 86.5789 106.805 86.2651C106.805 85.9513 106.863 85.6803 106.971 85.4378C107.08 85.1953 107.232 84.9028 107.413 84.5747C107.594 84.2467 107.84 84.0755 108.144 84.0755C108.448 84.0755 108.781 84.211 109.129 84.4892C109.476 84.7602 109.954 85.0098 110.555 85.2238C111.164 85.4378 111.772 85.5519 112.387 85.5519" fill="white"/>
<path d="M132.055 26.4109C131.237 26.4109 130.578 25.7619 130.578 24.9559V21.0331C130.578 20.2272 131.244 19.5781 132.055 19.5781C132.866 19.5781 133.532 20.2272 133.532 21.0331V24.9559C133.532 25.7619 132.866 26.4109 132.055 26.4109Z" fill="white"/>
<path d="M132.055 41.1316C131.237 41.1316 130.578 40.4826 130.578 39.6766V35.7538C130.578 34.9479 131.244 34.2988 132.055 34.2988C132.866 34.2988 133.532 34.9479 133.532 35.7538V39.6766C133.532 40.4826 132.866 41.1316 132.055 41.1316Z" fill="white"/>
<path d="M141.522 31.8094H137.54C136.721 31.8094 136.062 31.1604 136.062 30.3544C136.062 29.5485 136.729 28.8994 137.54 28.8994H141.522C142.34 28.8994 142.999 29.5556 142.999 30.3544C142.999 31.1532 142.333 31.8094 141.522 31.8094Z" fill="white"/>
<path d="M126.584 31.8094H122.602C121.784 31.8094 121.125 31.1604 121.125 30.3544C121.125 29.5485 121.791 28.8994 122.602 28.8994H126.584C127.402 28.8994 128.061 29.5556 128.061 30.3544C128.061 31.1532 127.395 31.8094 126.584 31.8094Z" fill="white"/>
<path d="M135.93 27.9943C135.554 27.9943 135.17 27.8516 134.888 27.5663C134.308 26.9958 134.308 26.0757 134.888 25.5051L137.704 22.7307C138.283 22.1601 139.217 22.1601 139.797 22.7307C140.376 23.3013 140.376 24.2213 139.797 24.7919L136.98 27.5663C136.69 27.8516 136.314 27.9943 135.937 27.9943" fill="white"/>
<path d="M125.375 38.4006C124.998 38.4006 124.615 38.2579 124.325 37.9726C123.746 37.4021 123.746 36.482 124.325 35.9114L127.142 33.1369C127.721 32.5663 128.655 32.5663 129.234 33.1369C129.813 33.7075 129.813 34.6276 129.234 35.1982L126.418 37.9726C126.128 38.2579 125.751 38.4006 125.375 38.4006Z" fill="white"/>
<path d="M138.747 38.4006C138.37 38.4006 137.987 38.2579 137.704 37.9726L134.888 35.1982C134.308 34.6276 134.308 33.7075 134.888 33.1369C135.467 32.5663 136.401 32.5663 136.98 33.1369L139.797 35.9114C140.376 36.482 140.376 37.4021 139.797 37.9726C139.507 38.2579 139.13 38.4006 138.754 38.4006" fill="white"/>
<path d="M128.192 27.9943C127.815 27.9943 127.431 27.8516 127.142 27.5663L124.325 24.7919C123.746 24.2213 123.746 23.3013 124.325 22.7307C124.904 22.1601 125.838 22.1601 126.418 22.7307L129.234 25.5051C129.813 26.0757 129.813 26.9958 129.234 27.5663C128.945 27.8516 128.568 27.9943 128.192 27.9943Z" fill="white"/>
<path d="M132.06 36.9099C128.389 36.9099 125.406 33.9714 125.406 30.3554C125.406 26.7393 128.389 23.8008 132.06 23.8008C135.731 23.8008 138.714 26.7393 138.714 30.3554C138.714 33.9714 135.731 36.9099 132.06 36.9099ZM132.06 26.7107C130.019 26.7107 128.36 28.3441 128.36 30.3554C128.36 32.3667 130.019 34 132.06 34C134.102 34 135.753 32.3667 135.753 30.3554C135.753 28.3441 134.095 26.7107 132.06 26.7107Z" fill="white"/>
<path d="M131.946 49.206C129.376 49.206 128.037 48.4286 126.856 47.7439C125.835 47.1519 125.032 46.6883 123.265 46.6883C121.498 46.6883 120.695 47.1519 119.681 47.7439C118.501 48.4286 117.169 49.206 114.591 49.206C112.013 49.206 110.681 48.4286 109.501 47.7439C108.48 47.1519 107.676 46.6883 105.917 46.6883C104.157 46.6883 103.346 47.1519 102.333 47.7439C101.153 48.4286 99.8203 49.206 97.2427 49.206C96.4245 49.206 95.7656 48.5569 95.7656 47.751C95.7656 46.945 96.4318 46.296 97.2427 46.296C99.0094 46.296 99.8131 45.8324 100.827 45.2404C102.007 44.5557 103.339 43.7783 105.917 43.7783C108.494 43.7783 109.827 44.5557 111.007 45.2404C112.028 45.8324 112.832 46.296 114.591 46.296C116.35 46.296 117.161 45.8324 118.175 45.2404C119.355 44.5557 120.687 43.7783 123.265 43.7783C125.843 43.7783 127.175 44.5557 128.355 45.2404C129.376 45.8324 130.18 46.296 131.946 46.296C133.713 46.296 134.517 45.8324 135.538 45.2404C136.718 44.5557 138.057 43.7783 140.628 43.7783C141.446 43.7783 142.105 44.4273 142.105 45.2333C142.105 46.0392 141.446 46.6883 140.628 46.6883C138.861 46.6883 138.057 47.1519 137.037 47.7439C135.856 48.4286 134.517 49.206 131.946 49.206Z" fill="white"/>
<path d="M107.612 53.5774C106.88 53.5774 106.243 53.0425 106.149 52.315L103.615 33.45C103.506 32.6512 104.078 31.9237 104.889 31.8167C105.7 31.7098 106.446 32.2732 106.547 33.072L109.081 51.937C109.19 52.7358 108.618 53.4633 107.807 53.5702C107.742 53.5774 107.677 53.5845 107.612 53.5845" fill="white"/>
<path d="M103.68 24.3207C102.948 24.3207 102.311 23.7858 102.217 23.0583L101.732 19.4423C101.623 18.6434 102.195 17.9088 103.006 17.8089C103.817 17.7019 104.563 18.2654 104.664 19.0642L105.149 22.6803C105.258 23.4791 104.686 24.2137 103.875 24.3136C103.81 24.3207 103.745 24.3279 103.68 24.3279" fill="white"/>
<path d="M91.9086 36.6889C91.1918 36.6889 90.5691 36.1753 90.446 35.4621C89.9392 32.3025 90.9745 29.1143 93.3784 26.4897C95.7026 23.9434 99.0332 22.2174 102.777 21.6326C106.513 21.0477 110.227 21.6611 113.239 23.3728C116.353 25.1417 118.344 27.8519 118.858 31.0044C118.988 31.7961 118.438 32.545 117.627 32.6734L92.1475 36.6746C92.0679 36.6889 91.9882 36.696 91.9158 36.696M105.528 24.3286C104.775 24.3286 104.007 24.3856 103.24 24.5069C100.17 24.9848 97.4476 26.3827 95.5795 28.4297C94.1749 29.9702 93.3856 31.7462 93.2915 33.5364L115.542 30.0416C114.89 28.3655 113.579 26.9247 111.755 25.8906C109.937 24.8564 107.78 24.3215 105.521 24.3215" fill="white"/>
<path d="M131.946 56.0956C129.376 56.0956 128.037 55.3182 126.856 54.6335C125.835 54.0415 125.032 53.578 123.265 53.578C121.498 53.578 120.695 54.0415 119.681 54.6335C118.501 55.3182 117.169 56.0956 114.591 56.0956C112.013 56.0956 110.681 55.3182 109.501 54.6335C108.48 54.0415 107.676 53.578 105.917 53.578C104.157 53.578 103.346 54.0415 102.333 54.6335C101.153 55.3182 99.8203 56.0956 97.2427 56.0956C96.4245 56.0956 95.7656 55.4466 95.7656 54.6407C95.7656 53.8347 96.4318 53.1857 97.2427 53.1857C99.0094 53.1857 99.8131 52.7221 100.827 52.1301C102.007 51.4454 103.339 50.668 105.917 50.668C108.494 50.668 109.827 51.4454 111.007 52.1301C112.028 52.7221 112.832 53.1857 114.591 53.1857C116.35 53.1857 117.161 52.7221 118.175 52.1301C119.355 51.4454 120.687 50.668 123.265 50.668C125.843 50.668 127.175 51.4454 128.355 52.1301C129.376 52.7221 130.18 53.1857 131.946 53.1857C133.713 53.1857 134.517 52.7221 135.538 52.1301C136.718 51.4454 138.057 50.668 140.628 50.668C141.446 50.668 142.105 51.3241 142.105 52.1229C142.105 52.9218 141.446 53.578 140.628 53.578C138.861 53.578 138.057 54.0415 137.037 54.6335C135.856 55.3182 134.517 56.0956 131.946 56.0956Z" fill="white"/>
<path d="M70.1719 126.185C60.0786 126.185 50.036 123.789 41.1302 119.26C32.514 114.874 24.9042 108.483 19.1335 100.773C18.6484 100.124 18.7859 99.211 19.4448 98.7332C20.1037 98.2553 21.0305 98.3908 21.5156 99.0399C27.0184 106.393 34.2734 112.484 42.4842 116.664C51.0931 121.043 60.4117 123.268 70.1719 123.268C85.8693 123.268 100.741 117.37 112.051 106.65C123.332 95.9658 129.892 81.6157 130.536 66.2456C130.572 65.4396 131.26 64.8191 132.071 64.8476C132.889 64.8833 133.519 65.5609 133.49 66.3597C132.817 82.4787 125.931 97.5349 114.1 108.74C102.233 119.98 86.6368 126.171 70.1646 126.171" fill="white"/>
<path d="M23.2267 23.7006C22.8792 23.7006 22.5317 23.5794 22.2493 23.3369C21.6338 22.8019 21.5832 21.8819 22.119 21.2828C34.2613 7.75992 51.7327 0 70.0511 0C81.1726 0 92.1347 2.86002 101.736 8.25917C102.445 8.65858 102.691 9.55014 102.286 10.2491C101.88 10.9481 100.975 11.1906 100.266 10.7912C91.1065 5.63452 80.6585 2.91709 70.0439 2.91709C52.5725 2.91709 35.9049 10.3133 24.3273 23.2156C24.0377 23.5437 23.625 23.7077 23.2196 23.7077" fill="white"/>
<path d="M70.2653 118.061C54.3724 118.061 39.2108 111.342 28.6541 99.6167C28.1111 99.0176 28.1689 98.0975 28.7771 97.5626C29.3853 97.0277 30.3266 97.0847 30.8624 97.6838C40.8543 108.782 55.2123 115.144 70.2581 115.144C84.5146 115.144 97.8589 109.623 107.844 99.5953C108.416 99.0176 109.35 99.0104 109.936 99.5739C110.522 100.137 110.53 101.057 109.958 101.635C99.4156 112.227 85.3183 118.061 70.2581 118.061" fill="white"/>
<path d="M32.3097 26.7394C31.926 26.7394 31.5423 26.5967 31.2526 26.3043C30.6806 25.7337 30.6879 24.8065 31.2671 24.243C41.7297 14.1081 55.5735 8.52344 70.25 8.52344C78.9893 8.52344 87.3448 10.4634 95.1067 14.2863C95.8379 14.6501 96.1348 15.5202 95.7656 16.2406C95.3963 16.9609 94.513 17.2534 93.7817 16.8897C86.4398 13.2664 78.5259 11.4334 70.25 11.4334C56.3555 11.4334 43.2429 16.7185 33.3379 26.3185C33.0483 26.5967 32.679 26.7394 32.3025 26.7394" fill="white"/>
</svg>
